# xmcd
# 
# Track frame offsets:
#     150
#     21497
#     36955
#     67783
#     79670
# 
# Disc length: 1306
# 
# Revision: 0
# Processed by: cddbd v1.5.2PL0 Copyright (c) Steve Scherf et al.
# Submitted via: fre:ac v1.0.31
# 
DISCID=36051805
DTITLE=Ottavia Marini - IDEA
DYEAR=0
DGENRE=Abstract
TTITLE0=Wait
TTITLE1=Stubborn 1
TTITLE2=Toward the Day
TTITLE3=Winter 2016
TTITLE4=Flow
EXTD=
EXTT0=
EXTT1=
EXTT2=
EXTT3=
EXTT4=
PLAYORDER=
